name C:/MyDriveSym/Projects/mobilecap/Data\Session20210903_0002\mocap\ForceDataProcessed\walking1_forces.mot
datacolumns 19
datarows 24
range 0.31200000 0.32350000
endheader 
time	R_ground_force_vx	R_ground_force_vy	R_ground_force_vz	R_ground_force_px	R_ground_force_py	R_ground_force_pz	R_ground_torque_x	R_ground_torque_y	R_ground_torque_z	L_ground_force_vx	L_ground_force_vy	L_ground_force_vz	L_ground_force_px	L_ground_force_py	L_ground_force_pz	L_ground_torque_x	L_ground_torque_y	L_ground_torque_z	
          0.31200000	        -12.98726700	        398.29957000	        -13.52890800	          0.24438500	          0.00600000	         -0.19870600	          0.00000000	         -1.77512000	          0.00000000	          0.00000000	          0.00000000	          0.00000000	          0.74409600	          0.00000000	         -0.27716200	          0.00000000	          0.00000000	          0.00000000	
          0.31250000	        -12.83993500	        398.30329700	        -13.52018100	          0.24463500	          0.00600000	         -0.19870000	          0.00000000	         -1.77941100	          0.00000000	          0.00000000	          0.00000000	          0.00000000	          0.74409600	          0.00000000	         -0.27716200	          0.00000000	          0.00000000	          0.00000000	
          0.31300000	        -12.69280500	        398.31415800	        -13.51188100	          0.24488400	          0.00600000	         -0.19869400	          0.00000000	         -1.78370800	          0.00000000	          0.00000000	          0.00000000	          0.00000000	          0.74409600	          0.00000000	         -0.27716200	          0.00000000	          0.00000000	          0.00000000	
          0.31350000	        -12.54586200	        398.33213400	        -13.50401100	          0.24513200	          0.00600000	         -0.19868900	          0.00000000	         -1.78801000	          0.00000000	          0.00000000	          0.00000000	          0.00000000	          0.74409600	          0.00000000	         -0.27716200	          0.00000000	          0.00000000	          0.00000000	
          0.31400000	        -12.39909200	        398.35720900	        -13.49657400	          0.24538000	          0.00600000	         -0.19868500	          0.00000000	         -1.79231600	          0.00000000	          0.00000000	          0.00000000	          0.00000000	          0.74409600	          0.00000000	         -0.27716200	          0.00000000	          0.00000000	          0.00000000	
          0.31450000	        -12.25248000	        398.38936600	        -13.48957300	          0.24562600	          0.00600000	         -0.19868000	          0.00000000	         -1.79662700	          0.00000000	          0.00000000	          0.00000000	          0.00000000	          0.74409600	          0.00000000	         -0.27716200	          0.00000000	          0.00000000	          0.00000000	
          0.31500000	        -12.10601000	        398.42858900	        -13.48301100	          0.24587300	          0.00600000	         -0.19867600	          0.00000000	         -1.80094000	          0.00000000	          0.00000000	          0.00000000	          0.00000000	          0.74409600	          0.00000000	         -0.27716200	          0.00000000	          0.00000000	          0.00000000	
          0.31550000	        -11.95966700	        398.47485900	        -13.47688900	          0.24611800	          0.00600000	         -0.19867200	          0.00000000	         -1.80525700	          0.00000000	          0.00000000	          0.00000000	          0.00000000	          0.74409600	          0.00000000	         -0.27716200	          0.00000000	          0.00000000	          0.00000000	
          0.31600000	        -11.81343600	        398.52815800	        -13.47121200	          0.24636300	          0.00600000	         -0.19866900	          0.00000000	         -1.80957500	          0.00000000	          0.00000000	          0.00000000	          0.00000000	          0.74409600	          0.00000000	         -0.27716200	          0.00000000	          0.00000000	          0.00000000	
          0.31650000	        -11.66730400	        398.58846900	        -13.46598100	          0.24660600	          0.00600000	         -0.19866600	          0.00000000	         -1.81389500	          0.00000000	          0.00000000	          0.00000000	          0.00000000	          0.74409600	          0.00000000	         -0.27716200	          0.00000000	          0.00000000	          0.00000000	
          0.31700000	        -11.52125300	        398.65577400	        -13.46119900	          0.24685000	          0.00600000	         -0.19866300	          0.00000000	         -1.81821600	          0.00000000	          0.00000000	          0.00000000	          0.00000000	          0.74409600	          0.00000000	         -0.27716200	          0.00000000	          0.00000000	          0.00000000	
          0.31750000	        -11.37527100	        398.73005300	        -13.45686700	          0.24709200	          0.00600000	         -0.19866100	          0.00000000	         -1.82253800	          0.00000000	          0.00000000	          0.00000000	          0.00000000	          0.74409600	          0.00000000	         -0.27716200	          0.00000000	          0.00000000	          0.00000000	
          0.31800000	        -11.22934100	        398.81128800	        -13.45298900	          0.24733300	          0.00600000	         -0.19865900	          0.00000000	         -1.82685900	          0.00000000	          0.00000000	          0.00000000	          0.00000000	          0.74409600	          0.00000000	         -0.27716200	          0.00000000	          0.00000000	          0.00000000	
          0.31850000	        -11.08344900	        398.89946100	        -13.44956600	          0.24757400	          0.00600000	         -0.19865800	          0.00000000	         -1.83118000	          0.00000000	          0.00000000	          0.00000000	          0.00000000	          0.74409600	          0.00000000	         -0.27716200	          0.00000000	          0.00000000	          0.00000000	
          0.31900000	        -10.93758000	        398.99455200	        -13.44660100	          0.24781400	          0.00600000	         -0.19865600	          0.00000000	         -1.83549900	          0.00000000	          0.00000000	          0.00000000	          0.00000000	          0.74409600	          0.00000000	         -0.27716200	          0.00000000	          0.00000000	          0.00000000	
          0.31950000	        -10.79172000	        399.09654100	        -13.44409500	          0.24805300	          0.00600000	         -0.19865500	          0.00000000	         -1.83981600	          0.00000000	          0.00000000	          0.00000000	          0.00000000	          0.74409600	          0.00000000	         -0.27716200	          0.00000000	          0.00000000	          0.00000000	
          0.32000000	        -10.64585400	        399.20541000	        -13.44205000	          0.24829200	          0.00600000	         -0.19865500	          0.00000000	         -1.84413100	          0.00000000	          0.00000000	          0.00000000	          0.00000000	          0.74409600	          0.00000000	         -0.27716200	          0.00000000	          0.00000000	          0.00000000	
          0.32050000	        -10.49996700	        399.32113700	        -13.44046900	          0.24852900	          0.00600000	         -0.19865400	          0.00000000	         -1.84844200	          0.00000000	          0.00000000	          0.00000000	          0.00000000	          0.74409600	          0.00000000	         -0.27716200	          0.00000000	          0.00000000	          0.00000000	
          0.32100000	        -10.35404400	        399.44370300	        -13.43935200	          0.24876600	          0.00600000	         -0.19865400	          0.00000000	         -1.85275000	          0.00000000	          0.00000000	          0.00000000	          0.00000000	          0.74409600	          0.00000000	         -0.27716200	          0.00000000	          0.00000000	          0.00000000	
          0.32150000	        -10.20807100	        399.57308800	        -13.43870100	          0.24900200	          0.00600000	         -0.19865500	          0.00000000	         -1.85705400	          0.00000000	          0.00000000	          0.00000000	          0.00000000	          0.74409600	          0.00000000	         -0.27716200	          0.00000000	          0.00000000	          0.00000000	
          0.32200000	        -10.06203400	        399.70927000	        -13.43851900	          0.24923700	          0.00600000	         -0.19865600	          0.00000000	         -1.86135200	          0.00000000	          0.00000000	          0.00000000	          0.00000000	          0.74409600	          0.00000000	         -0.27716200	          0.00000000	          0.00000000	          0.00000000	
          0.32250000	         -9.91591700	        399.85223000	        -13.43880600	          0.24947100	          0.00600000	         -0.19865700	          0.00000000	         -1.86564500	          0.00000000	          0.00000000	          0.00000000	          0.00000000	          0.74409600	          0.00000000	         -0.27716200	          0.00000000	          0.00000000	          0.00000000	
          0.32300000	         -9.76970700	        400.00194500	        -13.43956400	          0.24970500	          0.00600000	         -0.19865800	          0.00000000	         -1.86993200	          0.00000000	          0.00000000	          0.00000000	          0.00000000	          0.74409600	          0.00000000	         -0.27716200	          0.00000000	          0.00000000	          0.00000000	
          0.32350000	         -9.62338900	        400.15839400	        -13.44079400	          0.24993800	          0.00600000	         -0.19866000	          0.00000000	         -1.87421300	          0.00000000	          0.00000000	          0.00000000	          0.00000000	          0.74409600	          0.00000000	         -0.27716200	          0.00000000	          0.00000000	          0.00000000	
